<?xml version="1.0" encoding="UTF-8" standalone="no"?>
<!DOCTYPE svg PUBLIC "-//W3C//DTD SVG 1.1//EN" "http://www.w3.org/Graphics/SVG/1.1/DTD/svg11.dtd">
<svg width="100%" height="100%" viewBox="0 0 512 512" version="1.1" xmlns="http://www.w3.org/2000/svg" xmlns:xlink="http://www.w3.org/1999/xlink" xml:space="preserve" xmlns:serif="http://www.serif.com/" style="fill-rule:evenodd;clip-rule:evenodd;">
    <path d="M512,115L512,397C512,460.47 460.47,512 397,512L115,512C51.53,512 0,460.47 0,397L0,115C0,51.53 51.53,0 115,0L397,0C460.47,0 512,51.53 512,115Z" style="fill:url(#_Linear1);"/>
    <path d="M506,115L506,397C506,457.159 457.159,506 397,506L115,506C54.841,506 6,457.159 6,397L6,115C6,54.841 54.841,6 115,6L397,6C457.159,6 506,54.841 506,115Z" style="fill:none;stroke:rgb(34,48,62);stroke-width:8px;"/>
    <g transform="matrix(1,0,0,1,251.05,267)">
        <text x="-191.833px" y="0px" style="font-family:'Impact', sans-serif;font-stretch:condensed;font-size:105px;fill:rgb(0,200,255);">R<tspan x="-137.383px -95.852px " y="0px 0px ">EZ</tspan></text>
        <text x="-56.27px" y="0px" style="font-family:'Impact', sans-serif;font-stretch:condensed;font-size:105px;fill:white;">o<tspan x="-4.691px 21.971px 72.781px 102.673px 154.253px " y="0px 0px 0px 0px 0px ">lator</tspan></text>
    </g>
    <g transform="matrix(1,0,0,1,66,300)">
        <path d="M46,4L46,20C46,22.208 44.208,24 42,24L4,24C1.792,24 0,22.208 0,20L0,4C0,1.792 1.792,0 4,0L42,0C44.208,0 46,1.792 46,4Z" style="fill:rgb(0,136,255);"/>
        <path d="M100,4L100,20C100,22.208 98.208,24 96,24L58,24C55.792,24 54,22.208 54,20L54,4C54,1.792 55.792,0 58,0L96,0C98.208,0 100,1.792 100,4Z" style="fill:rgb(0,180,216);"/>
        <path d="M154,4L154,20C154,22.208 152.208,24 150,24L112,24C109.792,24 108,22.208 108,20L108,4C108,1.792 109.792,0 112,0L150,0C152.208,0 154,1.792 154,4Z" style="fill:rgb(0,212,255);"/>
        <path d="M208,4L208,20C208,22.208 206.208,24 204,24L166,24C163.792,24 162,22.208 162,20L162,4C162,1.792 163.792,0 166,0L204,0C206.208,0 208,1.792 208,4Z" style="fill:rgb(72,202,228);"/>
        <path d="M262,4L262,20C262,22.208 260.208,24 258,24L220,24C217.792,24 216,22.208 216,20L216,4C216,1.792 217.792,0 220,0L258,0C260.208,0 262,1.792 262,4Z" style="fill:rgb(144,224,239);"/>
        <path d="M316,4L316,20C316,22.208 314.208,24 312,24L274,24C271.792,24 270,22.208 270,20L270,4C270,1.792 271.792,0 274,0L312,0C314.208,0 316,1.792 316,4Z" style="fill:white;fill-opacity:0.3;"/>
        <path d="M370,4L370,20C370,22.208 368.208,24 366,24L328,24C325.792,24 324,22.208 324,20L324,4C324,1.792 325.792,0 328,0L366,0C368.208,0 370,1.792 370,4Z" style="fill:white;fill-opacity:0.1;"/>
    </g>
    <defs>
        <linearGradient id="_Linear1" x1="0" y1="0" x2="1" y2="0" gradientUnits="userSpaceOnUse" gradientTransform="matrix(0,512,-512,0,0,0)"><stop offset="0" style="stop-color:rgb(24,26,34);stop-opacity:1"/><stop offset="1" style="stop-color:rgb(8,10,14);stop-opacity:1"/></linearGradient>
    </defs>
</svg>
